<?xml version="1.0" standalone="no"?>
<!DOCTYPE svg PUBLIC "-//W3C//DTD SVG 20010904//EN"
 "http://www.w3.org/TR/2001/REC-SVG-20010904/DTD/svg10.dtd">
<svg version="1.0" xmlns="http://www.w3.org/2000/svg"
 width="260.000000pt" height="260.000000pt" viewBox="0 0 260.000000 260.000000"
 preserveAspectRatio="xMidYMid meet">
<metadata>
Created by potrace 1.11, written by Peter Selinger 2001-2013
</metadata>
<g transform="translate(0.000000,260.000000) scale(0.100000,-0.100000)"
fill="#000000" stroke="none">
<path d="M320 1240 l0 -590 455 0 455 0 0 150 0 150 -420 0 -420 0 0 440 0
440 -35 0 -35 0 0 -590z"/>
<path d="M1520 1240 l0 -590 475 0 c261 0 475 2 475 5 0 2 -108 155 -240 340
-132 185 -240 339 -240 343 0 4 109 116 242 249 l243 243 -478 0 -477 0 0
-590z m625 -231 c110 -154 202 -285 203 -290 2 -5 -151 -9 -377 -9 l-381 0 0
117 0 118 172 172 c95 95 175 173 178 173 3 0 95 -127 205 -281z"/>
</g>
</svg>
